# xmcd
#
# Track frame offsets:
#	150
#	11485
#	23347
#	35647
#	54540
#	65407
#	78817
#	88532
#	100892
#	114550
#	133297
#	149145
#	163505
#	177182
#	187367
#	202210
#
# Disc length: 2949
#
# Revision: 5
# Processed by: cddbd v1.5.1PL0 Copyright (c) Steve Scherf et al.
# Submitted via: Axialis_AX_CDPlayer 2.6
# Normalized: r3:DSETVAR1,TDELIM( - ),TSWAP
#
DISCID=e30b8310
DTITLE=Various Artist - Ultimate Classic Country Collection 2: Disc 2
DYEAR=1900
DGENRE=Country
TTITLE0=Marty Robbins - A White Sport Coat
TTITLE1=Skeeter Davis - The End Of The World
TTITLE2=Charlie Rich - The Most Beautiful Girl
TTITLE3=Juice Newton - Angel Of The Morning
TTITLE4=George Jones - Tender Years
TTITLE5=Waylon Jennings and Willie Nelson - Good Hearted Woman
TTITLE6=Ned Miller - From A Jack To A King
TTITLE7=Patsy Cline - Crazy
TTITLE8=Glen Campbell - Wichita Lineman
TTITLE9=Tom T. Hall - Watermelon Wine
TTITLE10=Ray Stevens - Everything Is Beautiful
TTITLE11=Ricky Skaggs - Highway 40 Blues
TTITLE12=Jimmy Dean - Big Bad John
TTITLE13=Carl Perkins - Blue Suede Shoes
TTITLE14=Highway 101 - Somewhere Tonight
TTITLE15=Bobbie Gentry - Ode To Billy Joe
EXTD=
EXTT0=
EXTT1=
EXTT2=
EXTT3=
EXTT4=
EXTT5=
EXTT6=
EXTT7=
EXTT8=
EXTT9=
EXTT10=
EXTT11=
EXTT12=
EXTT13=
EXTT14=
EXTT15=
PLAYORDER=
